<?xml version="1.0" encoding="utf-8"?>
<!-- Generator: Adobe Illustrator 27.5.0, SVG Export Plug-In . SVG Version: 6.00 Build 0)  -->
<svg version="1.1" xmlns="http://www.w3.org/2000/svg" xmlns:xlink="http://www.w3.org/1999/xlink" x="0px" y="0px"
	 viewBox="0 0 500 500" style="enable-background:new 0 0 500 500;" xml:space="preserve">
<g id="BACKGROUND">
	<rect style="fill:#FFFFFF;" width="500" height="500"/>
</g>
<g id="OBLECTS">
	<g>
		<path style="opacity:0.54;fill:#B5EFF5;" d="M50.261,354.553c-19.33-29.035-15.895-64.685-11.218-97.432
			c3.972-27.81,4.357-51.469,17.067-77.616c20.287-41.733,52.232-79.2,94.263-102.232c42.031-23.032,94.542-30.455,140.311-15.056
			c31.005,10.432,57.433,30.426,80.612,52.514c54.097,51.55,111.714,115.279,87.189,196.373
			c-7.033,23.255-22.394,43.405-41.012,59.012c-18.618,15.607-40.429,26.969-62.77,36.514
			c-38.739,16.55-75.171,29.631-122.182,29.239C132.566,435.034,67.627,380.638,50.261,354.553z"/>
		<path style="fill:#4C9C7E;" d="M94.166,295.508c-0.29-0.095-0.579-0.19-0.868-0.284c-4.238-1.391-8.477-2.782-12.715-4.173
			c-4.008-1.316-8.08-2.662-11.547-5.067s-6.305-6.06-6.713-10.259c-0.407-4.199,2.195-8.782,6.311-9.708
			c0.956-0.215,1.994-0.253,2.802-0.808c3.902-2.683-2.273-9.647-4.399-11.437c-5.736-4.83-13.284-8.241-16.693-14.749
			c-2.134-4.073-2.035-9.023-0.223-13.323c1.58-3.751,6.216-6.309,7.141-9.979c2.081-8.256-10.513-13.93-13.486-20.376
			c-1.959-4.247-1.709-9.396,0.661-13.617c6.833-12.17,19.931-10.957,25.889-0.01c2.924,5.373,5.045,11.674,10.528,14.827
			c0.643,0.37,1.361,0.696,2.129,0.657c1.313-0.065,2.31-1.128,3.279-1.991c3.821-3.404,9.725-4.563,14.491-2.845
			c10.806,3.893,10.434,17.507,9.035,26.425c-0.889,5.668-1.56,11.763,1.271,16.704c0.186,0.324,0.398,0.653,0.733,0.845
			c0.985,0.564,2.215-0.329,3.083-1.102c5.562-4.955,14.713-7.444,20.566-3.218c13.618,9.832,0.405,36.081,6,49.354
			c1.38,3.272,3.732,6.382,3.508,9.926c-0.322,5.105-5.761,8.26-10.738,9.443C120.938,303.899,107.165,299.762,94.166,295.508z"/>
		<g>
			<path style="fill:none;stroke:#38627A;stroke-miterlimit:10;" d="M71.012,132.169c23.127,70.961,33.389,103.094,48.561,176.84"/>
			<path style="fill:#38627A;" d="M74.415,125.281c-3.091-10.148-11.781-1.596-8.308,6.732c1.496,3.588,4.413,6.831,7.334,9.02
				C76.514,137.567,75.69,129.466,74.415,125.281z"/>
			<path style="fill:#38627A;" d="M78.497,140.944c0.135-1.918,0.444-3.863,1.316-5.577c0.872-1.714,2.379-3.183,4.248-3.635
				c1.869-0.452,4.07,0.312,4.962,2.016c1.116,2.132-0.034,4.699-1.171,6.821c-1.19,2.22-2.381,4.44-3.571,6.66
				c-0.526,0.981-1.086,2.001-2.008,2.623C77.601,153.005,78.35,143.027,78.497,140.944z"/>
			<path style="fill:#38627A;" d="M86.825,157.47c0.629-1.354,1.45-2.68,2.693-3.506c1.243-0.826,2.989-1.036,4.21-0.177
				c1.816,1.279,1.616,4.021,0.951,6.14c-0.943,3-2.429,5.829-4.364,8.307c-0.592,0.758-1.249,1.503-2.108,1.938
				C82.574,173.026,85.86,159.548,86.825,157.47z"/>
			<path style="fill:#38627A;" d="M93.635,177.103c0.597-1.272,1.287-2.537,2.327-3.483c1.039-0.946,2.492-1.534,3.865-1.235
				c2.174,0.473,3.376,3.042,3.029,5.239c-0.347,2.197-1.836,4.035-3.426,5.59c-1.538,1.504-6.574,6.743-8.457,4.517
				C89.315,185.772,92.766,178.954,93.635,177.103z"/>
			<path style="fill:#38627A;" d="M62.69,153.672c-1.029-1.736-1.61-4.191-0.166-5.6c1.186-1.157,3.166-0.962,4.65-0.225
				c1.956,0.972,3.435,2.67,4.86,4.326c2.136,2.482,8.076,9.208,1.67,8.809C69.309,160.708,64.865,157.341,62.69,153.672z"/>
			<path style="fill:#38627A;" d="M71.586,177.364c-1.379-0.964-2.659-2.202-3.193-3.798c-0.534-1.596-0.125-3.594,1.289-4.508
				c0.872-0.564,1.991-0.644,3.007-0.422c2.266,0.494,3.99,2.305,5.415,4.134c1.764,2.265,4.844,5.868,4.848,8.743
				C79.436,181.77,74.478,179.386,71.586,177.364z"/>
			<path style="fill:#38627A;" d="M80.933,199.127c-2.547-1.303-4.831-3.322-5.91-5.972c-0.494-1.212-0.705-2.653-0.063-3.794
				c0.81-1.441,2.764-1.913,4.359-1.479c1.595,0.434,2.896,1.569,4.069,2.736c1.645,1.636,6.742,6.656,5.929,9.343
				C88.406,202.976,83.054,200.212,80.933,199.127z"/>
		</g>
		<path style="fill:#4C9C7E;" d="M339.228,333.618c-9.189-5.212-17.996-11.096-26.328-17.591
			c-4.585-3.574-9.182-7.538-11.466-12.884c-2.283-5.346-1.52-12.428,3.211-15.808c2.564-1.832,6.345-2.872,6.939-5.966
			c0.2-1.04-0.041-2.113-0.351-3.127c-1.821-5.969-5.929-10.927-9.963-15.688c-7.157-8.447-14.005-18.606-16.986-29.399
			c-1.465-5.305-1.732-11.107,0.318-16.215c2.049-5.108,6.707-9.35,12.18-9.922c2.134-0.223,4.8-0.177,5.767-2.093
			c0.515-1.019,0.3-2.241,0.035-3.351c-3.317-13.893-16.612-20.692-16.253-36.261c0.145-6.262,4.097-12.914,10.276-13.94
			c1.333-0.221,2.721-0.181,3.994-0.634c3.134-1.116,4.543-4.84,4.586-8.167s-0.872-6.63-0.625-9.948
			c0.25-3.357,1.773-6.657,4.365-8.805c5.771-4.784,13.384-1.79,16.439,4.483c3.358,6.896-0.349,17.093,6.278,22.229
			c2.834,2.196,6.75,2.486,9.742,4.462c3.35,2.213,5.088,6.321,5.294,10.331c0.424,8.247-5.935,13.976-5.411,22.139
			c0.097,1.511,0.353,3.163,1.494,4.158c1.252,1.092,3.096,1.008,4.732,1.293c16.797,2.926,4.026,24.686,2.431,33.081
			c-0.591,3.111-0.835,6.745,1.363,9.024c2.362,2.449,6.329,2.123,9.475,3.419c6.949,2.861,7.875,12.73,4.839,19.604
			c-3.036,6.874-8.691,12.348-11.636,19.261c-0.416,0.975-0.775,2.089-0.38,3.072c0.846,2.1,3.868,1.662,6.08,2.142
			c4.021,0.872,5.98,5.815,5.187,9.853c-0.793,4.038-3.496,7.384-5.913,10.715c-3.993,5.502-7.414,11.419-10.195,17.622
			c-1.882,4.199-2.183,13.778-7.652,14.891"/>
		<path style="fill:#C4B886;" d="M279.531,274.676c-0.202-2.569-0.405-5.137-0.607-7.706"/>
		<g>
			<path style="fill:none;stroke:#38627A;stroke-miterlimit:10;" d="M367.713,303.256c2.619-21.11,17.131-38.771,32.772-53.187
				c15.642-14.416,33.236-27.168,45.375-44.636"/>
			<path style="fill:#38627A;" d="M449.006,196.14c-2.486-0.615-4.526,1.826-5.459,3.819c-1.038,2.216-1.371,4.852-0.933,7.273
				c-0.024,0.28,0.04,0.53,0.169,0.737c0.029,0.114,0.048,0.23,0.081,0.342c0.132,0.46,0.769,0.66,1.052,0.28
				c0.297,0.01,0.605-0.067,0.881-0.254c2.418-1.635,4.965-3.447,6.18-6.211C451.902,200.023,451.699,196.807,449.006,196.14z"/>
			<path style="fill:#38627A;" d="M432.65,204.957c-4.944,1.845-1.232,13.753,1.222,12.746c0.552-0.227,0.872-0.841,1.037-1.443
				C435.56,213.872,438.388,202.815,432.65,204.957z"/>
			<path style="fill:#38627A;" d="M449.571,215.924c-0.618-0.443-1.436-0.717-2.155-0.889c-2.503-0.601-5.134-0.314-7.658,0.189
				c-1.577,0.314-3.052,1.768-1.144,3c2.188,1.413,6.337,2.675,8.951,2.28c1.29-0.195,2.883-1.339,2.964-2.766
				C450.575,216.935,450.166,216.351,449.571,215.924z"/>
			<path style="fill:#38627A;" d="M426.875,217.564c-0.392-1.712-1.969-3.492-3.872-2.689c-2.083,0.878-1.935,3.549-1.638,5.389
				c0.16,0.988,2.605,8.759,4.568,5.97c0.604-0.858,0.489-2.985,0.687-4.047C426.905,220.658,427.229,219.113,426.875,217.564z"/>
			<path style="fill:#38627A;" d="M414.426,222.491c-3.978,1.68-2.488,9.256-0.747,12.569c0.01,0.047,0.017,0.094,0.027,0.141
				c0.282,1.274,2.073,1.433,2.085-0.164C415.807,232.949,419.228,220.464,414.426,222.491z"/>
			<path style="fill:#38627A;" d="M440.261,225.991c-0.102-0.817-0.512-1.599-1.249-2.068c-0.901-0.574-2.022-0.673-3.088-0.638
				c-1.464,0.047-8.374,0.903-6.24,3.854c0.15,0.207,0.368,0.375,0.666,0.471c1.278,0.415,2.605,0.624,3.923,0.874
				c1.127,0.214,2.333,0.602,3.483,0.632C439.572,229.165,440.453,227.518,440.261,225.991z"/>
			<path style="fill:#38627A;" d="M431.605,233.599c-0.083-0.448-0.273-0.876-0.56-1.229c-1.068-1.318-3.051-1.37-4.723-1.084
				c-1.448,0.247-5.528,0.697-5.097,2.83c0.634,3.143,9.244,4.082,10.299,0.83C431.664,234.513,431.688,234.046,431.605,233.599z"/>
			<path style="fill:#38627A;" d="M406.827,236.212c-0.472-1.549-2.049-2.627-3.64-1.941c-1.762,0.759-2.131,2.795-1.783,4.493
				c0.279,1.361,0.784,2.805,1.633,4.008c0.552,0.783,2.567,3.162,2.983,0.792C406.405,241.369,407.497,238.408,406.827,236.212z"/>
			<path style="fill:#38627A;" d="M412.379,240.797c-0.894,0.227-1.618,0.574-1.899,1.106c-1.175,2.221,3.642,2.718,4.86,3.235
				c0.977,0.414,1.932,0.936,3.01,1.03c1.632,0.143,3.321-0.811,3.49-2.553c0.237-2.447-2.332-3.183-4.287-3.221
				C416.557,240.376,414.139,240.352,412.379,240.797z"/>
			<path style="fill:#38627A;" d="M396.228,246.978c-0.16-1.491-1.199-2.774-2.828-2.406c-1.579,0.357-2.287,1.862-2.159,3.371
				c0.114,1.344,0.423,2.866,1.148,4.022c0.47,0.749,3.061,2.881,2.821,0.511C395.02,250.605,396.435,248.909,396.228,246.978z"/>
			<path style="fill:#38627A;" d="M411.862,252.216c-0.409-3.242-5.573-3.245-8.028-2.988c-1.236,0.13-2.398,0.373-2.377,2.092
				c0.021,1.727,3.26,2.219,4.523,2.796c0.885,0.404,1.813,0.933,2.797,1.031C410.54,255.322,412.093,254.051,411.862,252.216z"/>
			<path style="fill:#38627A;" d="M385.977,255.07c-0.513-1.751-2.394-2.437-3.933-1.477c-1.868,1.164-1.63,3.494-1.101,5.328
				c0.496,1.719,1.432,5.046,3.397,5.523c0.429,0.104,0.822-0.099,0.888-0.561c0.028-0.19,0.025-0.364,0.011-0.534
				c0.108-0.15,0.188-0.325,0.219-0.532C385.804,260.489,386.656,257.388,385.977,255.07z"/>
			<path style="fill:#38627A;" d="M404.593,262.131c-0.969-1.946-3.633-2.938-5.685-2.973c-1.346-0.023-3.587,0.285-4.91,1.245
				c-1.29,0.349-1.412,2.236-0.098,2.891c2.471,1.232,5.596,2.477,8.416,2.433C404.307,265.698,405.512,263.976,404.593,262.131z"/>
			<path style="fill:#38627A;" d="M395.273,273.074c-0.902-1.835-3.716-2.493-5.552-2.484c-1.773,0.009-3.764,0.206-5.365,1.193
				c-0.89,0.549-3.319,3.441-0.682,3.519c1.793,0.053,3.532,0.194,5.293,0.551c1.267,0.257,2.506,0.616,3.81,0.57
				C394.583,276.361,396.24,275.041,395.273,273.074z"/>
			<path style="fill:#38627A;" d="M375.506,267.361c-0.662-1.777-2.539-3.037-4.348-1.945c-1.909,1.152-1.686,3.545-1.092,5.367
				c0.617,1.89,1.577,4.347,3.128,5.833c0.008,0.031,0.015,0.063,0.023,0.094c0.363,1.373,2.252,1.308,2.481-0.115
				C376.158,273.724,376.549,270.16,375.506,267.361z"/>
			<path style="fill:#38627A;" d="M389.244,283.763c-2.458-3.406-10.33-2.488-12.901,0.843c-0.297,0.254-0.553,0.55-0.752,0.898
				c-0.543,0.951-0.159,2.471,1.152,2.493c2.032,0.034,4.055,0.148,6.071,0.405c1.527,0.195,3.158,0.679,4.676,0.208
				C389.583,287.961,390.579,285.613,389.244,283.763z"/>
		</g>
		<g>
			<path style="fill:none;stroke:#38627A;stroke-miterlimit:10;" d="M34.22,250.434c6.776,19.921,23.499,34.136,39.386,48.351
				c11.706,11.706,24.249,21.74,33.274,34.93"/>
			<path style="fill:#38627A;" d="M35.544,241.766c-0.587-2.002-2.713-3.826-4.886-2.863c-3.371,1.494-1.861,5.689-0.622,8.145
				c0.76,1.505,1.692,3.078,2.81,4.35c0.694,0.79,3.415,2.595,3.316,0.124C36.038,248.411,36.425,244.773,35.544,241.766z"/>
			<path style="fill:#38627A;" d="M44.893,245.55c-0.85-0.413-1.909-0.228-2.744,0.235c-1.698,0.943-2.654,2.88-2.902,4.807
				c-0.195,1.51-0.174,9.028,1.817,9.598c3.138,0.899,7.65-12.468,3.952-14.576C44.976,245.591,44.935,245.57,44.893,245.55z"/>
			<path style="fill:#38627A;" d="M52.657,257.64c-3.795,0.053-4.406,3.765-4.196,6.826c0.085,1.238,1.298,10.076,3.342,6.884
				c1.708-2.666,3.913-5.994,4.21-9.232C56.199,260.085,55.014,257.608,52.657,257.64z"/>
			<path style="fill:#38627A;" d="M65.425,271.323c-0.329-2.003-1.701-4.329-4.069-3.951c-6.726,1.073-2.578,12.257,0.24,15.313
				C64.278,280.24,66.064,275.209,65.425,271.323z"/>
			<path style="fill:#38627A;" d="M76.473,282.525c-0.111-1.278-0.485-2.493-1.432-3.329c-2.234-1.973-4.669,0.716-5.209,2.9
				c-0.776,3.143,0.799,7.347,1.911,10.243c0.144,0.375,0.311,0.768,0.641,0.997c2.963,2.052,3.847-6.01,3.95-7.121
				C76.436,285.131,76.584,283.797,76.473,282.525z"/>
			<path style="fill:#38627A;" d="M43.759,272.846c-0.814-1.017-1.751-1.934-2.873-2.585c-1.466-0.849-3.291-1.194-4.882-0.612
				c-2.03,0.742-3.023,3.394-1.643,5.186c0.915,1.188,2.45,1.126,3.764,1.103c0.758-0.013,7.558-0.417,6.35-2.136
				C44.246,273.478,44.008,273.157,43.759,272.846z"/>
			<path style="fill:#38627A;" d="M37.609,262.078c-0.86-1.094-2.568-2.18-3.11-2.494c-1.804-1.047-3.942-1.541-6.02-1.307
				c-1.955,0.22-2.758,1.919-2.434,3.781c0.233,1.341,1.635,2.168,2.971,2.423c2.156,0.411,4.373-0.182,6.567-0.12
				c0.611,0.017,1.257,0.079,1.804-0.193C38.408,263.659,38.229,262.867,37.609,262.078z"/>
			<path style="fill:#38627A;" d="M53.14,282.362c-0.369-0.345-0.766-0.66-1.194-0.933c-2.098-1.339-5.951-2.041-8.238-0.841
				c-1.902,0.997-2.845,2.707-1.46,4.559c1.381,1.847,4.216,2.033,6.301,1.821c1.412-0.143,2.823-0.286,4.234-0.429
				c0.84-0.085,1.778-0.222,2.293-0.89c0.103-0.134,0.187-0.294,0.183-0.463c-0.004-0.181-0.105-0.345-0.206-0.496
				C54.499,283.853,53.872,283.047,53.14,282.362z"/>
			<path style="fill:#38627A;" d="M64.947,295.561c0.004-0.144-0.028-0.284-0.087-0.409c-0.135-0.432-0.412-0.804-0.844-0.992
				c-0.465-0.202-0.831-0.323-1.199-0.379c-1.716-0.798-3.726-1.213-5.505-1.275c-1.961-0.068-4.866,0.739-5.233,3.012
				c-0.378,2.34,2.455,3.558,4.335,3.819c2.709,0.375,5.207-0.73,7.602-1.86C64.705,297.152,65.025,296.324,64.947,295.561z"/>
			<path style="fill:#38627A;" d="M76.203,305.026c-0.264-1.093-1.264-1.665-2.302-1.918c-2.983-1.438-6.73-1.97-9.423,0.413
				c-1.035,0.916-1.462,2.281-0.543,3.454c1.01,1.288,2.952,1.479,4.468,1.621C70.486,308.792,77.072,308.619,76.203,305.026z"/>
			<path style="fill:#38627A;" d="M86.928,293.058c0.196-2.573-0.578-4.566-3.766-3.914c-2.662,0.544-3.455,4.324-3.378,6.568
				c0.066,1.928,0.829,3.525,1.672,5.214c1.197,2.398,1.982,2.836,3.205,0.021C85.299,299.478,86.711,295.911,86.928,293.058z"/>
			<path style="fill:#38627A;" d="M85.522,312.602c-3.468-2.657-14.717-0.961-13.263,5.13c0.712,2.983,3.756,2.806,6.135,2.314
				c2.992-0.619,5.853-1.986,7.218-4.869c0.163-0.345,0.227-0.691,0.214-1.017C86.166,313.696,86.043,313.001,85.522,312.602z"/>
			<path style="fill:#38627A;" d="M97.959,300.933c-2.635-1.828-5.187,1.101-5.606,3.616c-0.304,1.821,0.012,3.703,0.463,5.472
				c0.285,1.117,0.979,4.817,2.005,5.454c3.049,1.894,4.561-4.472,4.859-5.99C100.171,306.989,100.381,302.617,97.959,300.933z"/>
			<path style="fill:#38627A;" d="M96.628,324.392c-1.082-2.209-5.207-2.229-7.249-1.907c-2.652,0.419-6.144,2.21-6.515,5.228
				c-0.399,3.252,3.553,3.274,5.725,3.017c3.094-0.366,5.835-1.738,8.082-3.878C97.433,326.127,97.27,325.032,96.628,324.392z"/>
		</g>
		<path style="fill:#4C9C7E;" d="M319.57,299.975c1.685-6.073,4.188-11.688,8.16-16.039c5.479-6,15.588-8.602,21.783-3.345
			c2.717,2.305,4.56,5.918,7.982,6.917c18.786,5.482,2.258-36.023,23.71-31.474c1.884,0.4,3.805,0.905,5.35,2.055
			c2.701,2.009,3.784,5.611,6.351,7.787c4.507,3.822,11.613,1.743,16.192-1.991c4.58-3.734,7.994-8.882,13.063-11.918
			c4.556-2.729,10.473-3.436,15.24-1.098c4.768,2.339,7.919,7.985,6.677,13.148c-1.353,5.624-6.876,8.995-11.426,12.565
			c-12.919,10.135-3.125,12.444,0.983,22.166c2.049,4.851-1.129,10.626-5.654,13.32c-4.525,2.694-10,3.1-15.249,3.526
			c-3.302,0.267-7.035,0.807-8.931,3.524c-3.058,4.382,0.988,10.096,1.682,15.395c0.816,6.242-3.468,12.258-8.911,15.42
			c-8.372,4.864-20.502,6.01-29.816,8.802c-10.436,3.128-21.481,4.108-32.29,2.675c-19.811-2.627-21.725-14.13-19.311-32.538
			C316.294,320.191,316.922,309.517,319.57,299.975z"/>
		<polygon style="fill:#552570;" points="303.52,378.59 53.864,378.59 86.803,181.516 336.459,181.516 		"/>
		<g>
			<g>
				<polygon style="fill:#FFFFFF;" points="352.989,379.046 103.333,379.046 86.809,181.516 336.465,181.516 				"/>
				<polygon style="fill:#BEDBE8;" points="160.709,280.475 108.024,280.475 104.958,243.911 157.643,243.911 				"/>
				<polygon style="fill:#BEDBE8;" points="218.338,280.475 165.652,280.475 162.587,243.911 215.272,243.911 				"/>
				<polygon style="fill:#C74476;" points="339.663,219.73 90.007,219.73 86.803,181.516 336.459,181.516 				"/>
				<polygon style="fill:#BEDBE8;" points="275.966,280.475 223.281,280.475 220.215,243.911 272.9,243.911 				"/>
				<polygon style="fill:#BEDBE8;" points="333.595,280.475 280.91,280.475 277.844,243.911 330.529,243.911 				"/>
				<polygon style="fill:#BEDBE8;" points="164.269,322.937 111.584,322.937 108.518,286.373 161.203,286.373 				"/>
				<polygon style="fill:#C74476;" points="221.898,322.937 169.213,322.937 166.147,286.373 218.832,286.373 				"/>
				<polygon style="fill:#BEDBE8;" points="279.527,322.937 226.841,322.937 223.776,286.373 276.461,286.373 				"/>
				<polygon style="fill:#BEDBE8;" points="337.155,322.937 284.47,322.937 281.404,286.373 334.09,286.373 				"/>
				<polygon style="fill:#BEDBE8;" points="167.829,365.399 115.144,365.399 112.078,328.835 164.764,328.835 				"/>
				<polygon style="fill:#BEDBE8;" points="225.458,365.399 172.773,365.399 169.707,328.835 222.392,328.835 				"/>
				<polygon style="fill:#C74476;" points="283.087,365.399 230.402,365.399 227.336,328.835 280.021,328.835 				"/>
				<polygon style="fill:#BEDBE8;" points="340.716,365.399 288.03,365.399 284.965,328.835 337.65,328.835 				"/>
				<polygon style="fill:#BEDBE8;" points="172.962,237.544 104.424,237.544 103.677,228.637 172.215,228.637 				"/>
				<polygon style="fill:#BEDBE8;" points="329.995,237.544 321.124,237.544 320.377,228.637 329.249,228.637 				"/>
				<polygon style="fill:#BEDBE8;" points="317.763,237.544 308.891,237.544 308.144,228.637 317.016,228.637 				"/>
			</g>
			<path style="fill:#FFFFFF;" d="M184.156,314.155c0.261,2.389-1.292,4.435-3.468,4.569s-4.154-1.694-4.415-4.084
				c-0.261-2.389,1.291-4.435,3.468-4.569C181.918,309.938,183.894,311.766,184.156,314.155z"/>
			<g>
				<path style="fill:none;stroke:#050504;stroke-miterlimit:10;" d="M180.214,314.398l-54.04-137.509
					c-11.736-29.863,2.483-63.637,32.044-76.113l0,0c47.359-19.989,95.912,25.798,78.732,74.247L180.214,314.398z"/>
			</g>
			<g>
				<path style="fill:none;stroke:#552570;stroke-width:3;stroke-miterlimit:10;" d="M167.089,182.085
					c5.691,0.675,10.132,2.423,9.533,7.695c-0.592,5.217-5.385,5.926-11.077,5.251"/>
				<path style="fill:#58B8A5;" d="M154.458,205.95L154.458,205.95c-6.485,0-12.005-4.722-13.009-11.129l-2.959-18.879h31.936
					l-2.959,18.879C166.462,201.228,160.943,205.95,154.458,205.95z"/>
			</g>
			<g>
				<path style="fill:#C74476;" d="M167.066,159.895L167.066,159.895c-1.721-1.158-4.044,0.025-4.118,2.098v0
					c-0.098,2.749-3.808,3.538-5.017,1.066l0,0c-0.911-1.863-3.515-2-4.615-0.242l0,0c-1.46,2.332-5.067,1.16-4.878-1.585v0
					c0.143-2.069-2.044-3.489-3.876-2.517l0,0c-2.43,1.289-4.968-1.529-3.432-3.811l0,0c1.158-1.72-0.026-4.044-2.098-4.118h0
					c-2.749-0.099-3.538-3.808-1.066-5.017l0,0c1.863-0.911,2-3.515,0.242-4.615l0,0c-2.332-1.46-1.16-5.067,1.585-4.878h0
					c2.069,0.143,3.489-2.044,2.517-3.876h0c-1.289-2.43,1.529-4.968,3.811-3.432l0,0c1.72,1.158,4.044-0.026,4.118-2.098v0
					c0.099-2.749,3.808-3.538,5.017-1.066l0,0c0.911,1.863,3.515,2,4.615,0.242l0,0c1.46-2.332,5.067-1.16,4.878,1.585l0,0
					c-0.143,2.069,2.044,3.489,3.876,2.517l0,0c2.43-1.289,4.968,1.529,3.432,3.811l0,0c-1.158,1.721,0.026,4.044,2.098,4.118h0
					c2.749,0.098,3.538,3.808,1.066,5.017l0,0c-1.863,0.911-2,3.515-0.242,4.615l0,0c2.332,1.46,1.16,5.067-1.585,4.878h0
					c-2.069-0.143-3.489,2.044-2.517,3.876v0C172.167,158.893,169.348,161.431,167.066,159.895z"/>
				<g>
					<path style="fill:#FFFFFF;" d="M152.793,143.197c0.688-1.017,1.032-1.964,1.032-2.84v-0.352c0-0.782-0.219-1.4-0.656-1.854
						c-0.439-0.454-1.025-0.68-1.76-0.68c-0.736,0-1.315,0.223-1.737,0.669c-0.422,0.446-0.634,1.099-0.634,1.96v0.422h-1.69v-0.516
						c0-1.22,0.372-2.202,1.115-2.945c0.744-0.743,1.741-1.115,2.993-1.115c0.813,0,1.533,0.176,2.158,0.528
						c0.626,0.352,1.107,0.833,1.444,1.443c0.336,0.61,0.504,1.291,0.504,2.042v0.399c0,0.657-0.117,1.283-0.352,1.878
						c-0.235,0.594-0.587,1.213-1.057,1.854l-4.693,6.759h6.102v1.525h-8.215v-1.385L152.793,143.197z"/>
					<path style="fill:#FFFFFF;" d="M158.327,148.055v-0.798c0-0.579,0.082-1.142,0.247-1.69c0.164-0.548,0.403-1.135,0.716-1.76
						l3.779-7.628h1.784l-3.497,7.111c0.187-0.141,0.441-0.258,0.762-0.352c0.321-0.094,0.654-0.141,0.997-0.141
						c1.205,0,2.179,0.399,2.922,1.197c0.743,0.798,1.115,1.87,1.115,3.215v0.798c0,0.954-0.192,1.776-0.575,2.464
						c-0.383,0.688-0.908,1.216-1.573,1.584c-0.665,0.367-1.42,0.551-2.265,0.551c-1.345,0-2.417-0.41-3.215-1.232
						C158.727,150.555,158.327,149.448,158.327,148.055z M165.439,148.102v-0.798c0-0.907-0.243-1.627-0.728-2.159
						c-0.484-0.532-1.142-0.798-1.971-0.798c-0.814,0-1.463,0.262-1.948,0.786c-0.484,0.524-0.727,1.24-0.727,2.148v0.798
						c0,0.923,0.239,1.654,0.716,2.194c0.477,0.54,1.13,0.81,1.96,0.81c0.829,0,1.487-0.27,1.971-0.81
						C165.197,149.733,165.439,149.01,165.439,148.102z"/>
				</g>
			</g>
			<g>
				<circle style="fill:#58B8A5;" cx="204.724" cy="134.498" r="19.686"/>
				<polyline style="fill:none;stroke:#050504;stroke-miterlimit:10;" points="204.724,119.167 204.724,134.498 218.3,129.368 				
					"/>
			</g>
			<g>
				<path style="fill:#58B8A5;" d="M195.045,262.275c0,8.146-14.75,31.847-14.75,31.847s-14.75-23.701-14.75-31.847
					c0-8.146,6.604-14.75,14.75-14.75C188.441,247.525,195.045,254.128,195.045,262.275z"/>
				<path style="fill:#FFFFFF;" d="M185.715,261.374c0,2.993-2.426,5.42-5.42,5.42c-2.993,0-5.42-2.427-5.42-5.42
					c0-2.993,2.426-5.42,5.42-5.42C183.288,255.954,185.715,258.381,185.715,261.374z"/>
			</g>
			<g>
				<circle style="fill:#552570;" cx="204.724" cy="171.13" r="9.05"/>
				<path style="fill:#552570;" d="M222.607,195.68c-0.518-9.44-8.313-16.94-17.882-16.94s-17.364,7.501-17.882,16.94H222.607z"/>
			</g>
			<g>
				<g>
					<ellipse style="fill:#552570;" cx="186.693" cy="222.921" rx="19.497" ry="14.045"/>
					<polygon style="fill:#552570;" points="167.196,239.604 167.196,222.921 186.693,222.921 					"/>
				</g>
				<line style="fill:none;stroke:#FFFFFF;stroke-miterlimit:10;" x1="176.944" y1="218.692" x2="199.04" y2="218.692"/>
				<line style="fill:none;stroke:#FFFFFF;stroke-miterlimit:10;" x1="176.944" y1="224.239" x2="199.04" y2="224.239"/>
			</g>
		</g>
		<g>
			
				<line style="opacity:0.5;fill:none;stroke:#050504;stroke-miterlimit:10;" x1="474.025" y1="415.194" x2="256.501" y2="415.194"/>
			
				<line style="opacity:0.5;fill:none;stroke:#050504;stroke-miterlimit:10;" x1="206.895" y1="399.157" x2="156.501" y2="399.157"/>
			
				<line style="opacity:0.5;fill:none;stroke:#050504;stroke-miterlimit:10;" x1="225.458" y1="393.083" x2="122.876" y2="393.083"/>
			<line style="opacity:0.5;fill:none;stroke:#050504;stroke-miterlimit:10;" x1="309.52" y1="388.874" x2="272.287" y2="388.874"/>
			
				<line style="opacity:0.5;fill:none;stroke:#050504;stroke-miterlimit:10;" x1="241.242" y1="399.157" x2="218.899" y2="399.157"/>
			<line style="opacity:0.5;fill:none;stroke:#050504;stroke-miterlimit:10;" x1="255.637" y1="378.59" x2="38.113" y2="378.59"/>
		</g>
		<g>
			<g>
				<path style="fill:#E17260;" d="M429.451,404.371c-3.023-0.092-6.005-0.074-8.931,0.053c-1.461-3.832-2.921-7.665-4.382-11.498
					c-0.786-2.062-1.551-4.346-0.347-5.762c0.83-0.976,2.582-1.335,4.406-0.903c4.575,1.083,5.639-2.928,6.445-0.181
					C427.803,390.034,428.209,400.412,429.451,404.371z"/>
				<path style="fill:#1D2038;" d="M421.077,415.454h26.152c1.168-2.846-2.125-4.84-4.759-5.74c-2.686-0.918-7.297-1.448-9.731-2.91
					c-2.584-1.553-1.923-4.46-2.137-7.106c0.018,0.218-7.824,1.546-10.45,1.967c-0.45,0.072-0.747,0.117-0.825,0.126
					c-0.175,0.021,1.005,7.021,1.089,7.516C420.631,410.564,420.716,413.562,421.077,415.454z"/>
			</g>
			<g>
				<path style="fill:#E17260;" d="M343.587,401.374c3.184-0.139,6.365-0.156,9.53-0.049c0.083-4.278,0.167-8.555,0.251-12.833
					c0.045-2.301-0.018-4.849-1.844-6.409c-1.258-1.075-3.262-1.453-5.038-0.95c-4.456,1.259-3.69,3.922-3.493,6.986
					C343.276,392.527,343.389,396.958,343.587,401.374z"/>
				<path style="fill:#1D2038;" d="M353.323,399.188c0.479-0.014,0.795-0.025,0.877-0.031c0.252-0.02,0.459,13.92,0.402,15.05
					c-0.012,0.24-0.04,0.507-0.249,0.662c-0.172,0.127-0.419,0.143-0.648,0.152c-9.167,0.384-18.334-0.211-27.5,0.173
					c0.424-1.608,1.995-2.759,3.546-3.71c3.41-2.09,7.704-3.138,11.867-3.992c0.909-0.187,1.521-1.045,1.398-1.965
					c-0.277-2.083-0.771-4.514-0.88-6.326C342.16,399.43,350.526,399.268,353.323,399.188z"/>
			</g>
			<g id="XMLID_97_">
				<g id="XMLID_606_">
					<path id="XMLID_622_" style="fill:#E17260;" d="M373.331,128.989c-0.05,0.347-0.103,0.694-0.159,1.04
						c-0.872,5.361,1.197,10.958,0.129,16.504c-0.756,3.929-4.104,11.742-8.928,12.253c-1.228,0.13-2.459-1.498-3.136-2.329
						c-2.239-2.747-4.037-5.983-4.422-9.506c-0.186-1.704-0.038-3.426,0.11-5.134c0.213-2.457,0.426-4.914,0.64-7.372
						c0.1-1.153,0.201-2.31,0.442-3.443c0.435-2.044,1.341-4.005,2.73-5.566c2.868-3.226,7.053-3.484,11.107-3.56
						c0.458-0.008,0.945,0.002,1.331,0.25c0.742,0.478,0.746,1.542,0.665,2.421C373.702,126.04,373.543,127.52,373.331,128.989z"/>
					<path style="fill:#1D2038;" d="M360.678,132.548c1.352,0.965,2.776,1.653,4.423,1.949c2.578,0.464,5.193,0.142,7.802,0.026
						c-0.034-1.12-0.028-2.239,0.071-3.357c0.015-0.175,0.172-1.296,0.327-2.288c0.133-0.848,0.265-1.601,0.307-1.59
						c-0.586-0.155-1.211-0.433-1.669-0.84c-0.282-0.251-0.478-0.586-0.764-0.849c-1.824-1.67-4.509-2.052-6.783-1.149
						c-1.331,0.528-2.467,1.457-3.342,2.582c-0.525,0.676-0.958,1.42-1.311,2.199c-0.264,0.582-0.585,1.287-0.772,1.972
						C359.51,131.707,360.122,132.151,360.678,132.548z"/>
					<g id="XMLID_607_">
						<path id="XMLID_620_" style="fill:#E17260;" d="M357.672,108.039c2.036-1.087,6.053,1.512,8.355,1.801
							c2.265,0.503,5.798,1.076,7.394,2.744c3.379,3.531,2.753,9.666,0.625,13.968c-0.356,0.72-1.096,2.555-1.524,3.236
							c-3.413,5.428-9.735,5.91-12.908,5.144c-3.791-0.916-5.849-4.079-6.491-8.508c-0.115-0.795-0.144-3.389-0.156-4.193
							C352.891,117.297,355.529,109.183,357.672,108.039z"/>
						<path id="XMLID_611_" style="fill:#1D2038;" d="M354.082,99.854c0.288-0.236,0.607-0.431,0.956-0.572
							c0.922-0.372,1.975-0.274,2.922,0.028c0.947,0.301,1.821,0.792,2.722,1.212c0.549,0.256,1.176,0.488,1.746,0.282
							c0.843-0.305,1.103-1.371,1.77-1.97c0.718-0.645,1.848-0.65,2.721-0.239c0.874,0.411,1.537,1.161,2.118,1.931
							c0.581,0.77,1.116,1.59,1.84,2.228c0.309,0.272,0.659,0.512,1.057,0.616c0.638,0.165,1.309-0.038,1.968-0.037
							c1.59,0.003,2.986,1.25,3.56,2.733s0.462,3.146,0.133,4.701c-0.329,1.556-0.866,3.065-1.128,4.634
							c-0.321,1.925-0.129,3.871-0.433,5.783c-0.052,0.33-0.108,0.662-0.229,0.974c-1.27,3.292-3.833,0.974-4.447-1.337
							c-0.383-1.443-0.375-2.972-0.81-4.4c-0.987-3.242-4.503-5.653-7.842-4.986c-2.108,0.422-4.446,0.382-6.428-0.526
							c-0.715-0.328-1.207-0.652-1.584-1.26c-0.282-0.456-0.423-0.857-0.818-1.264c-0.685-0.706-1.694-1.273-1.89-2.319
							c-0.055-0.294-0.033-0.596-0.003-0.894c0.088-0.875,0.238-1.743,0.449-2.596C352.686,101.553,353.252,100.535,354.082,99.854z
							"/>
						<path id="XMLID_610_" style="fill:#1D2038;" d="M352.713,119.856c0.033,0.173,0.072,0.341,0.117,0.503
							c0.105-0.034,0.322-0.114,0.378-0.217c1.347-2.48,1.205-5.48,2.462-7.977c0.529-1.05,1.612-1.207,2.084-2.05
							c0.684-1.221-0.165-3.353-1.326-3.964c-1.102-0.58-2.636-0.199-3.271,0.871c-0.202,0.339-0.314,0.723-0.405,1.106
							c-0.562,2.354-0.417,4.812-0.27,7.229C352.568,116.755,352.447,118.461,352.713,119.856z"/>
						<path id="XMLID_81_" style="fill:#E17260;" d="M372.344,124.838c0.936,1.349,2.713,1.812,3.933,0.538
							c0.556-0.581,0.815-1.385,0.953-2.177c0.123-0.706,0.162-1.442-0.043-2.129c-0.279-0.936-1.048-1.566-1.951-1.872
							C372.179,118.164,370.958,122.839,372.344,124.838z"/>
						<path id="XMLID_608_" style="fill:#E17260;" d="M350.64,119.801c0.011,0.588,0.164,1.175,0.45,1.689
							c1.118,2.011,3.819,1.33,4.547-0.636c0.304-0.822,0.27-1.769,0.004-2.596c-0.44-1.364-1.594-2.478-3.058-1.72
							c-0.853,0.442-1.515,1.24-1.793,2.16C350.682,119.055,350.632,119.429,350.64,119.801z"/>
					</g>
				</g>
				<g id="XMLID_169_">
					<g id="XMLID_171_">
						<path style="fill:#552570;" d="M364.982,214.493c-4.685-9.637-17.963-10.587-24.909-3.14
							c-9.707,10.407-12.589,26.419-13.926,40.034c-1.559,15.874-2.458,32.717-0.522,48.597c0.756,6.201,0.235,12.358,1.16,18.569
							c1.137,7.631,3.697,15.028,3.916,22.794c0.114,4.035-0.425,8.085-0.041,12.103c0.692,7.241,4.306,13.726,5.641,20.813
							c1.385,7.352,2.214,14.903,3.429,22.344c5.776-0.095,13.584-0.936,19.36-1.032c0.523-17.862,1.487-34.383,1.325-52.986
							c-0.166-19.123,4.228-39.408,5.328-58.471c1.129-17.824,1.799-35.69,2.042-53.581
							C367.87,224.178,366.999,218.646,364.982,214.493z"/>
					</g>
				</g>
				<g id="XMLID_1_">
					<g id="XMLID_2_">
						<path style="fill:#552570;" d="M422.332,392.801c2.068-0.889,3.679-2.118,5.287-3.676c0.609-0.59,1.218-1.184,1.846-1.757
							c-1.304-9.91-4.394-19.652-6.774-29.37c-6.413-25.651-12.582-51.365-18.873-77.046c-5.342-21.809-8.015-47.672-26.049-63.226
							c-0.746-0.643-1.521-1.273-2.417-1.679c-7.508-3.405-16.357,4.968-20.144,10.472c-6.251,9.086-0.132,18.213,2.358,27.375
							c2.984,10.978,3.934,22.134,8.735,32.654c1.712,3.752,3.78,7.347,5.23,11.209c2.729,7.271,3.18,15.261,6.094,22.461
							c2.684,6.632,7.314,12.177,10.55,18.512c3.751,7.341,3.582,15.065,4.871,23.051c0.942,5.834,3.432,10.227,6.754,15.129
							c4.216,6.221,8.433,12.443,12.649,18.665C415.798,394.844,419.177,394.158,422.332,392.801z"/>
					</g>
				</g>
				<path style="fill:#FFFFFF;" d="M371.619,147.368c-2.73,4.279-11.008,4.279-13.782-2.414c-0.409-0.986-0.904-2.504-0.904-2.504
					c-4.858,0.501-10.853,1.089-15.711,1.59c-2.282,0.236-4.609,0.483-6.702,1.423c-5.72,2.57-6.786,8.388-5.9,13.967
					c0.673,4.241,3.543,6.836,4.131,11.257c0.59,4.444,1.087,8.901,1.489,13.366c0.789,8.752,1.142,17.948-2.549,25.922
					c-2.477,5.352-5.805,10.443,1.032,14.094c2.418,1.291,5.194,1.712,7.913,2.057c14.929,1.894,30.071,2.104,45.047,0.624
					c0.864-0.086,1.774-0.193,2.475-0.706c1.123-0.822,1.35-2.386,1.404-3.777c0.286-7.397-0.677-15.183-1.047-22.573
					c-0.293-5.853-0.31-10.934,0.26-16.916c1.126-11.828,7.786-24.796,4.305-36.504c-0.13-0.439-0.281-0.907-0.645-1.184
					c-0.209-0.159-0.466-0.236-0.718-0.308c-2.398-0.685-4.982-0.952-7.437-1.358c-1.798-0.297-3.598-0.584-5.401-0.851
					c-1.711-0.253-3.487-0.31-5.144-0.742c-0.213,0.932-0.443,1.86-0.69,2.783C372.756,145.687,372.155,146.529,371.619,147.368z"/>
				<g id="XMLID_73_">
					<path id="XMLID_121_" style="fill:#FFFFFF;" d="M327.353,153.934c-0.584,1.473-1.066,3.001-1.533,4.501
						c-1.325,4.267-2.651,8.534-3.976,12.801c-1.501,4.833-2.551,9.382-2.543,14.457c0.008,4.557,1.259,9.075,2.632,13.445
						c0.978,3.112,2.308,6.412,5.112,8.079c2.227,1.323,5.086,1.342,7.492,0.383c2.406-0.959,4.384-2.807,5.848-4.943
						c3.045-4.443,2.898-9.708,2.811-14.843c-0.116-6.849-0.436-13.246,1.012-20.033c1.163-5.449,3.055-11.046,1.742-16.46
						c-1.589-6.551-9.56-8.44-14.449-3.924C329.58,149.173,328.326,151.478,327.353,153.934z"/>
				</g>
				<path style="fill:#FFFFFF;" d="M365.073,125.924c-0.176,2.128-1.891,3.776-3.948,3.717c-2.057-0.059-3.674-1.803-3.728-3.938
					L365.073,125.924z"/>
				<path style="fill:#FFFFFF;" d="M384.129,143.942c-0.624-0.025-1.246-0.045-1.863-0.064c-1.292-0.039-2.633-0.068-3.819,0.447
					c-1.828,0.793-2.9,2.705-3.564,4.584c-1.676,4.743-1.71,10.849,0.286,15.523c0.768,1.798,1.808,3.464,2.696,5.205
					c0.876,1.716,2.208,3.415,2.935,5.164c0.845,2.033,0.646,4.894,0.698,7.063c0.119,4.976-0.336,9.965-1.362,14.836
					c-0.681,3.235-1.537,6.893,0.331,9.621c1.851,2.703,5.828,3.25,8.86,2.012c3.032-1.239,5.28-3.845,7.17-6.521
					c8.53-12.073,14.762-28.904,10.34-43.527c-1.148-3.795-3.185-7.418-6.296-9.876C396.011,144.83,389.965,144.177,384.129,143.942
					z"/>
				<path style="fill:#E17260;" d="M349.11,195.421c4.657,2.642,9.287,5.337,14.271,7.307c5.388,2.131,10.927,3.928,16.622,5.033
					c2.844,0.552,6.883,1.585,9.708,0.89c2.608-0.641,4.881-3.191,6.16-5.415c0.818-1.424,1.49-3.587,0.963-5.168
					c-0.748-2.246-1.867-4.111-3.585-5.739c-2.205-2.089-5.277-4.414-8.242-5.101c-4.951-1.148-9.974-1.945-15.002-2.667
					c-4.727-0.679-9.373-1.788-14.075-2.393c-7.934-1.019-17.54-5.524-24.025,1.191c-1.471,1.523-2.942,3.046-4.384,4.597
					c-0.496,0.534-1.002,1.091-1.249,1.777c-0.584,1.622-1.333,9.76,1.859,5.846c1.903-2.333,3.696-4.77,6.855-5.383
					c3.136-0.609,6.247,0.934,9.07,2.43C345.755,193.527,347.434,194.471,349.11,195.421z"/>
				<path style="fill:none;stroke:#050504;stroke-width:0.5;stroke-miterlimit:10;" d="M332.118,188.886
					c-1.691,1.602-3.826,4.029-3.704,6.929"/>
				<path style="fill:none;stroke:#050504;stroke-width:0.5;stroke-miterlimit:10;" d="M330.208,187.795
					c-2.222,1.785-3.44,4.744-3.117,7.576"/>
				<path style="fill:#E59376;" d="M369.608,189.995c3.321-2.037,7.03-3.779,10.194-3.383c0.541,0.068,1.06,0.248,1.586,0.391
					c1.361,0.369,2.79,0.489,4.194,0.353c0.201-0.02,0.415-0.05,0.569-0.181c0.148-0.125,0.213-0.319,0.271-0.504
					c0.434-1.388,0.772-2.806,1.011-4.241c0.192-1.15,0.304-2.397-0.255-3.42c-0.454-0.829-1.298-1.389-2.194-1.693
					c-3.336-1.134-7.756-0.536-11.169-0.048c-3.588,0.512-7.076,1.553-10.548,2.59c-7.745,2.313-15.765,3.663-23.37,6.448
					c-6.328,2.317-14.944,6.081-16.87,13.332c-0.615,2.317,0.313,4.877,2.02,6.559c1.708,1.682,4.089,2.558,6.473,2.805
					c6.382,0.661,13.309-2.441,18.56-5.851C356.664,198.877,362.913,194.102,369.608,189.995z"/>
				<path style="fill:none;stroke:#050504;stroke-width:0.5;stroke-miterlimit:10;" d="M362.276,115.905
					c-0.15,1.862-0.195,3.695-0.704,5.656c-0.019,0.072-0.019,0.15-0.058,0.214c-0.056,0.093-0.162,0.142-0.257,0.195
					c-0.276,0.154-0.519,0.403-0.579,0.714c-0.053,0.273,0.049,0.57,0.259,0.753c0.21,0.182,0.518,0.243,0.781,0.152"/>
				<path style="fill:#1D2038;" d="M357.614,119.08c0,0.508-0.412,0.92-0.92,0.92s-0.92-0.412-0.92-0.92
					c0-0.508,0.412-0.92,0.92-0.92S357.614,118.572,357.614,119.08z"/>
				<path style="fill:#1D2038;" d="M367.731,119.999c0,0.508-0.412,0.92-0.92,0.92c-0.508,0-0.92-0.412-0.92-0.92
					c0-0.508,0.412-0.92,0.92-0.92C367.319,119.08,367.731,119.492,367.731,119.999z"/>
				<path style="fill:#FFFFFF;" d="M382.685,173.617c-0.673,5.997-0.671,8.978-1.409,13.335c-0.026,0.155,0.087,0.293,0.245,0.299
					c4.357,0.166,15.264,5.819,15.313,10.818c1.076-2.577,2.341-5.272,2.705-8.041c0.141-1.07,0.22-2.195-0.187-3.195
					c-0.697-1.712-2.59-2.573-4.353-3.129c-1.763-0.557-3.686-1.046-4.882-2.456c-1.197-1.413-1.369-3.415-2.206-5.067
					C386.645,173.682,385.461,173.245,382.685,173.617z"/>
			</g>
			<path style="fill:none;stroke:#050504;stroke-width:0.5;stroke-miterlimit:10;" d="M367.076,287.406
				c-3.007-9.675-7.84-18.855-9.287-28.883c-0.522-3.62-0.735-7.63-3.273-10.264"/>
			<path style="fill:none;stroke:#050504;stroke-width:0.5;stroke-miterlimit:10;" d="M382.288,179.614
				c0.61-7.738,1.922-11.895,1.922-15.477"/>
			<path style="fill:none;stroke:#050504;stroke-width:0.5;stroke-miterlimit:10;" d="M342.354,179.614
				c0.083-4.956,0.559-8.66,1.421-13.542"/>
			<path style="fill:#1D2038;" d="M374.264,121.117c1.172,0.939,0.97,3.084-0.355,3.789"/>
			<path style="fill:#1D2038;" d="M353.61,117.967c-0.561,0.112-1.041,0.558-1.196,1.108c-0.154,0.55,0.024,1.181,0.444,1.569"/>
			<path style="fill:#1D2038;" d="M393.492,200.91c0.218,1.638-0.721,3.365-2.215,4.071"/>
			<path style="fill:#1D2038;" d="M330.257,314.872c0.419,1.709,1.742,2.68,3.001,2.751c1.259,0.071,2.478-0.575,3.658-1.211"/>
			<path style="fill:#1D2038;" d="M406.956,305.757c0.632,1.546,1.262,3.319,0.545,4.827c-0.257,0.542-0.675,0.999-1.158,1.355
				c-0.734,0.542-1.63,0.861-2.541,0.906"/>
			<path style="fill:none;stroke:#050504;stroke-width:0.5;stroke-miterlimit:10;" d="M337.801,238.412
				c-0.203,2.137-1.695,4.044-3.624,4.988c-1.929,0.944-4.226,0.985-6.281,0.363"/>
			<path style="fill:none;stroke:#050504;stroke-width:0.5;stroke-miterlimit:10;" d="M381.242,237.674
				c0.742,2.242,2.379,4.173,4.469,5.272c2.09,1.099,4.609,1.355,6.876,0.697"/>
			<path style="fill:#1D2038;" d="M327.361,202.285c-0.227,0.818,0.001,1.746,0.581,2.366c0.58,0.62,1.492,0.908,2.323,0.735"/>
		</g>
		<path style="fill:#C74476;" d="M237.971,296.941c0.261,2.389-1.291,4.435-3.468,4.569c-2.177,0.134-4.154-1.694-4.415-4.084
			c-0.261-2.389,1.292-4.435,3.468-4.569C235.733,292.723,237.71,294.551,237.971,296.941z"/>
		<path style="fill:#58B8A5;" d="M239.44,310.984c0.261,2.389-1.291,4.435-3.468,4.569c-2.177,0.134-4.154-1.694-4.415-4.084
			c-0.261-2.389,1.291-4.435,3.468-4.569C237.202,306.766,239.179,308.595,239.44,310.984z"/>
		<path style="fill:#552570;" d="M299.336,339.403c0.261,2.389-1.292,4.435-3.469,4.569c-2.177,0.134-4.154-1.694-4.415-4.084
			c-0.261-2.389,1.292-4.435,3.469-4.569C297.098,335.185,299.075,337.013,299.336,339.403z"/>
		<path style="fill:#552570;" d="M121.134,268.972c0.261,2.389-1.292,4.435-3.468,4.569c-2.177,0.134-4.154-1.694-4.415-4.084
			c-0.261-2.39,1.291-4.435,3.468-4.569C118.896,264.754,120.873,266.582,121.134,268.972z"/>
		<path style="fill:#552570;" d="M183.903,339.403c0.261,2.389-1.292,4.435-3.468,4.569c-2.177,0.134-4.154-1.694-4.415-4.084
			c-0.262-2.389,1.291-4.435,3.468-4.569C181.665,335.185,183.641,337.013,183.903,339.403z"/>
		<path style="fill:#C74476;" d="M185.372,353.446c0.261,2.389-1.291,4.435-3.468,4.569s-4.154-1.694-4.415-4.084
			c-0.261-2.389,1.292-4.435,3.469-4.569C183.134,349.228,185.111,351.057,185.372,353.446z"/>
		<path style="fill:#552570;" d="M293.509,267.753c0.261,2.389-1.291,4.435-3.468,4.569c-2.177,0.134-4.154-1.694-4.415-4.084
			c-0.261-2.389,1.291-4.435,3.468-4.569C291.271,263.535,293.247,265.363,293.509,267.753z"/>
	</g>
</g>
</svg>
